<?xml version="1.0" standalone="no"?>
<svg xmlns:xlink="http://www.w3.org/1999/xlink" id="wave" style="transform:rotate(0deg); transition: 0.3s" viewBox="0 0 1440 490" version="1.1" xmlns="http://www.w3.org/2000/svg"><defs><linearGradient id="sw-gradient-0" x1="0" x2="0" y1="1" y2="0"><stop stop-color="rgba(113, 158, 55, 1)" offset="0%"/><stop stop-color="rgba(192.358, 255, 103.742, 1)" offset="100%"/></linearGradient></defs><path style="transform:translate(0, 0px); opacity:1" fill="url(#sw-gradient-0)" d="M0,147L26.7,138.8C53.3,131,107,114,160,155.2C213.3,196,267,294,320,310.3C373.3,327,427,261,480,196C533.3,131,587,65,640,57.2C693.3,49,747,98,800,155.2C853.3,212,907,278,960,261.3C1013.3,245,1067,147,1120,98C1173.3,49,1227,49,1280,81.7C1333.3,114,1387,180,1440,228.7C1493.3,278,1547,310,1600,277.7C1653.3,245,1707,147,1760,106.2C1813.3,65,1867,82,1920,81.7C1973.3,82,2027,65,2080,122.5C2133.3,180,2187,310,2240,375.7C2293.3,441,2347,441,2400,383.8C2453.3,327,2507,212,2560,163.3C2613.3,114,2667,131,2720,155.2C2773.3,180,2827,212,2880,245C2933.3,278,2987,310,3040,277.7C3093.3,245,3147,147,3200,138.8C3253.3,131,3307,212,3360,228.7C3413.3,245,3467,196,3520,155.2C3573.3,114,3627,82,3680,89.8C3733.3,98,3787,147,3813,171.5L3840,196L3840,490L3813.3,490C3786.7,490,3733,490,3680,490C3626.7,490,3573,490,3520,490C3466.7,490,3413,490,3360,490C3306.7,490,3253,490,3200,490C3146.7,490,3093,490,3040,490C2986.7,490,2933,490,2880,490C2826.7,490,2773,490,2720,490C2666.7,490,2613,490,2560,490C2506.7,490,2453,490,2400,490C2346.7,490,2293,490,2240,490C2186.7,490,2133,490,2080,490C2026.7,490,1973,490,1920,490C1866.7,490,1813,490,1760,490C1706.7,490,1653,490,1600,490C1546.7,490,1493,490,1440,490C1386.7,490,1333,490,1280,490C1226.7,490,1173,490,1120,490C1066.7,490,1013,490,960,490C906.7,490,853,490,800,490C746.7,490,693,490,640,490C586.7,490,533,490,480,490C426.7,490,373,490,320,490C266.7,490,213,490,160,490C106.7,490,53,490,27,490L0,490Z"/><defs><linearGradient id="sw-gradient-1" x1="0" x2="0" y1="1" y2="0"><stop stop-color="rgba(200, 234, 151, 1)" offset="0%"/><stop stop-color="rgba(140.161, 202.093, 52.549, 1)" offset="100%"/></linearGradient></defs><path style="transform:translate(0, 50px); opacity:0.9" fill="url(#sw-gradient-1)" d="M0,196L26.7,204.2C53.3,212,107,229,160,253.2C213.3,278,267,310,320,310.3C373.3,310,427,278,480,245C533.3,212,587,180,640,171.5C693.3,163,747,180,800,155.2C853.3,131,907,65,960,106.2C1013.3,147,1067,294,1120,302.2C1173.3,310,1227,180,1280,179.7C1333.3,180,1387,310,1440,302.2C1493.3,294,1547,147,1600,122.5C1653.3,98,1707,196,1760,269.5C1813.3,343,1867,392,1920,343C1973.3,294,2027,147,2080,81.7C2133.3,16,2187,33,2240,73.5C2293.3,114,2347,180,2400,236.8C2453.3,294,2507,343,2560,334.8C2613.3,327,2667,261,2720,220.5C2773.3,180,2827,163,2880,147C2933.3,131,2987,114,3040,98C3093.3,82,3147,65,3200,98C3253.3,131,3307,212,3360,245C3413.3,278,3467,261,3520,277.7C3573.3,294,3627,343,3680,343C3733.3,343,3787,294,3813,269.5L3840,245L3840,490L3813.3,490C3786.7,490,3733,490,3680,490C3626.7,490,3573,490,3520,490C3466.7,490,3413,490,3360,490C3306.7,490,3253,490,3200,490C3146.7,490,3093,490,3040,490C2986.7,490,2933,490,2880,490C2826.7,490,2773,490,2720,490C2666.7,490,2613,490,2560,490C2506.7,490,2453,490,2400,490C2346.7,490,2293,490,2240,490C2186.7,490,2133,490,2080,490C2026.7,490,1973,490,1920,490C1866.7,490,1813,490,1760,490C1706.7,490,1653,490,1600,490C1546.7,490,1493,490,1440,490C1386.7,490,1333,490,1280,490C1226.7,490,1173,490,1120,490C1066.7,490,1013,490,960,490C906.7,490,853,490,800,490C746.7,490,693,490,640,490C586.7,490,533,490,480,490C426.7,490,373,490,320,490C266.7,490,213,490,160,490C106.7,490,53,490,27,490L0,490Z"/></svg>